<svg xmlns="http://www.w3.org/2000/svg" width="260" height="160" fill="none" xmlns:v="https://vecta.io/nano"><g clip-path="url(#C)"><path d="M22.951 83.025L0 133.613h260l-21.108-41.344-7.539 12.437-39.704-66.555-14.407 7.899L146.92 0 93.144 54.286 73.376 41.345l-39.201 59.16-11.224-17.479z" fill="#0a2a05"/><path d="M66.675 77.311l-14.742 3.866-4.858-.168 26.302-39.664 19.768 12.941L146.92 0l30.322 46.05 14.407-7.899 25.632 43.025h-9.382-11.559l-18.93-19.832-11.224 5.714-15.413-26.219-4.188 6.051-6.366-9.916-9.046 31.429-12.732-16.303-22.449 25.21L82.925 64.37 72.539 81.177l-5.863-3.866z" fill="#4caf2a"/><path d="M139.549 19.16l-2.513-2.353 8.879-9.076 5.863 8.908-2.177 2.521-2.346-1.345-3.685 1.345-1.843-1.345-2.178 1.345z" fill="#fff"/><path d="M22.951 83.025L0 133.613h3.686l19.265-44.201 11.224 15.798 39.201-56.302 19.768 13.445 52.603-53.445 31.495 45.378 14.407-9.076 39.704 63.53 7.539-11.933 18.93 36.806H260l-21.108-41.344-7.539 12.437-39.704-66.555-14.407 7.899L146.92 0 93.144 54.286 73.376 41.345l-39.201 59.16-11.224-17.479z" fill="#0a2a05"/><path d="M19.929 139.595c-6.488 0-11.964-1.2-16.427-3.6l3.451-10.733c4.739 1.708 8.973 2.562 12.7 2.562 2.025 0 3.497-.231 4.417-.693.966-.507 1.449-1.246 1.449-2.215 0-.647-.253-1.201-.759-1.662-.506-.508-1.518-1.062-3.037-1.662s-3.796-1.339-6.833-2.216c-3.727-1.108-6.626-2.908-8.697-5.401-2.071-2.539-3.106-5.447-3.106-8.725 0-5.078 1.657-8.909 4.969-11.494 3.359-2.631 7.868-3.947 13.528-3.947a39.23 39.23 0 0 1 8.697.969c2.853.6 5.384 1.5 7.592 2.701l-3.727 10.456c-2.577-.877-4.832-1.5-6.764-1.87-1.887-.415-3.727-.623-5.522-.623-3.037 0-4.555.831-4.555 2.493 0 .831.483 1.546 1.45 2.146 1.012.554 3.06 1.27 6.143 2.147 4.831 1.292 8.489 3.278 10.974 5.955 2.485 2.631 3.727 5.793 3.727 9.486 0 5.124-1.656 9.071-4.969 11.841-3.313 2.724-8.213 4.085-14.701 4.085zm27.485-48.747h15.944v47.639H47.414V90.848zm26.279 0h33.337v10.525H90.466v8.655h15.115v8.725H90.466v9.209h16.565v10.525H73.694V90.848zm78.348 48.747c-8.65 0-13.942-4.016-15.875-12.048l-1.725-7.132h-3.244v18.072h-15.116V90.848h20.913c3.958 0 7.432.6 10.423 1.8 3.036 1.154 5.383 2.793 7.04 4.916s2.484 4.57 2.484 7.34c0 3.093-.759 5.701-2.277 7.825-1.472 2.077-3.773 3.785-6.902 5.124.322 1.754.69 3.347 1.104 4.778.552 1.754 1.311 2.977 2.278 3.67s2.369 1.038 4.21 1.038c.644 0 1.656-.092 3.037-.277v11.287c-2.163.831-4.279 1.246-6.35 1.246zm-18.221-28.874c3.405 0 5.797-.37 7.178-1.108 1.426-.785 2.139-2.101 2.139-3.947 0-1.57-.575-2.701-1.725-3.393-1.15-.739-2.968-1.108-5.453-1.108h-4.762v9.556h2.623zm67.754 28.874c-8.65 0-13.942-4.016-15.874-12.048l-1.726-7.132h-3.244v18.072h-15.115V90.848h20.913c3.957 0 7.431.6 10.422 1.8 3.037 1.154 5.384 2.793 7.04 4.916s2.485 4.57 2.485 7.34c0 3.093-.759 5.701-2.278 7.825-1.472 2.077-3.773 3.785-6.902 5.124.322 1.754.69 3.347 1.104 4.778.552 1.754 1.312 2.977 2.278 3.67s2.37 1.038 4.21 1.038c.645 0 1.657-.092 3.037-.277v11.287c-2.162.831-4.279 1.246-6.35 1.246zm-18.221-28.874c3.405 0 5.798-.37 7.178-1.108 1.427-.785 2.14-2.101 2.14-3.947 0-1.57-.575-2.701-1.726-3.393-1.15-.739-2.968-1.108-5.453-1.108h-4.762v9.556h2.623zm40.768-19.873h20.982l13.735 47.639h-16.22l-1.794-9.14h-12.286l-2.002 9.14h-15.529l13.114-47.639zm15.046 29.982l-4.486-20.842-4.694 20.842h9.18z" fill="url(#B)"/><mask id="A" maskUnits="userSpaceOnUse" x="-2" y="86" width="267" height="58"><path d="M264.02 86.05H-1.005v57.479H264.02V86.05z" fill="#fff"/><path d="M19.929 139.595c-6.488 0-11.964-1.2-16.427-3.6l3.451-10.733c4.739 1.708 8.973 2.562 12.7 2.562 2.025 0 3.497-.231 4.417-.693.966-.507 1.449-1.246 1.449-2.215 0-.647-.253-1.201-.759-1.662-.506-.508-1.518-1.062-3.037-1.662s-3.796-1.339-6.833-2.216c-3.727-1.108-6.626-2.908-8.697-5.401-2.071-2.539-3.106-5.447-3.106-8.725 0-5.078 1.657-8.909 4.969-11.494 3.359-2.631 7.868-3.947 13.528-3.947a39.23 39.23 0 0 1 8.697.969c2.853.6 5.384 1.5 7.592 2.701l-3.727 10.456c-2.577-.877-4.832-1.5-6.764-1.87-1.887-.415-3.727-.623-5.522-.623-3.037 0-4.555.831-4.555 2.493 0 .831.483 1.546 1.45 2.146 1.012.554 3.06 1.27 6.143 2.147 4.831 1.292 8.489 3.278 10.974 5.955 2.485 2.631 3.727 5.793 3.727 9.486 0 5.124-1.656 9.071-4.969 11.841-3.313 2.724-8.213 4.085-14.701 4.085zm27.485-48.747h15.944v47.639H47.414V90.848zm26.279 0h33.337v10.525H90.466v8.655h15.115v8.725H90.466v9.209h16.565v10.525H73.694V90.848zm78.348 48.747c-8.65 0-13.942-4.016-15.875-12.048l-1.725-7.132h-3.244v18.072h-15.116V90.848h20.913c3.958 0 7.432.6 10.423 1.8 3.036 1.154 5.383 2.793 7.04 4.916s2.484 4.57 2.484 7.34c0 3.093-.759 5.701-2.277 7.825-1.472 2.077-3.773 3.785-6.902 5.124.322 1.754.69 3.347 1.104 4.778.552 1.754 1.311 2.977 2.278 3.669s2.369 1.039 4.21 1.039c.644 0 1.656-.092 3.037-.277v11.287c-2.163.831-4.279 1.246-6.35 1.246zm-18.221-28.874c3.405 0 5.797-.37 7.178-1.108 1.426-.785 2.139-2.101 2.139-3.947 0-1.57-.575-2.701-1.725-3.393-1.15-.739-2.968-1.108-5.453-1.108h-4.762v9.556h2.623zm67.754 28.874c-8.65 0-13.942-4.016-15.874-12.048l-1.726-7.132h-3.244v18.072h-15.115V90.848h20.913c3.957 0 7.431.6 10.422 1.8 3.037 1.154 5.384 2.793 7.04 4.916s2.485 4.57 2.485 7.34c0 3.093-.759 5.701-2.278 7.825-1.472 2.077-3.773 3.785-6.902 5.124.322 1.754.69 3.347 1.104 4.778.552 1.754 1.312 2.977 2.278 3.669s2.37 1.039 4.21 1.039c.645 0 1.657-.092 3.037-.277v11.287c-2.162.831-4.279 1.246-6.35 1.246zm-18.221-28.874c3.405 0 5.798-.37 7.178-1.108 1.427-.785 2.14-2.101 2.14-3.947 0-1.57-.575-2.701-1.726-3.393-1.15-.739-2.968-1.108-5.453-1.108h-4.762v9.556h2.623zm40.768-19.873h20.982l13.735 47.639h-16.22l-1.794-9.14h-12.286l-2.002 9.14h-15.529l13.114-47.639zm15.046 29.982l-4.486-20.842-4.694 20.842h9.18z" fill="#000"/></mask><g mask="url(#A)"><path d="M3.502 135.995l-3.508-1.136-.944 2.937 2.71 1.457 1.741-3.258zm3.451-10.733l1.246-3.48-3.584-1.292-1.169 3.637 3.508 1.135zm17.117 1.869l1.648 3.308.031-.016.031-.016-1.71-3.276zm.69-3.877l-2.606 2.614.062.062.065.06 2.479-2.736zm-9.87-3.878l-1.047 3.545.014.004.014.004 1.02-3.553zm-8.697-5.401l-2.852 2.342.011.012.011.013 2.831-2.367zm1.864-20.219l2.263 2.919.003-.002.003-.002-2.268-2.914zm22.225-2.978l-.812 3.607.028.006.028.006.756-3.619zm7.592 2.701l3.47 1.245 1.064-2.986-2.779-1.51-1.755 3.251zm-3.727 10.456l-1.184 3.501 3.433 1.169 1.221-3.425-3.47-1.245zm-6.764-1.87l-.79 3.612.05.011.05.009.69-3.632zm-8.628 4.016l-1.94 3.144.086.054.089.048 1.765-3.246zm6.143 2.147l-1.006 3.557.028.008.028.008.95-3.573zm10.974 5.955l-2.697 2.52.011.011.011.012 2.676-2.543zm-1.242 21.327l2.336 2.86.012-.01.012-.01-2.359-2.84zm-14.701.388c-6.047 0-10.887-1.12-14.686-3.162l-3.483 6.517c5.128 2.758 11.239 4.04 18.168 4.04v-7.395zM7.01 137.13l3.451-10.733-7.015-2.27-3.451 10.732 7.015 2.271zm-1.303-8.388c5.008 1.805 9.674 2.779 13.946 2.779v-7.395c-3.182 0-6.983-.733-11.454-2.344l-2.492 6.96zm13.946 2.779c2.146 0 4.343-.218 6.066-1.082l-3.297-6.615c.008-.004-.041.021-.167.058a4.71 4.71 0 0 1-.548.116c-.495.077-1.169.128-2.054.128v7.395zm6.127-1.114c.908-.477 1.8-1.175 2.458-2.182.674-1.03.967-2.177.967-3.309h-7.371c0-.163.051-.457.242-.748.175-.268.343-.343.284-.312l3.42 6.551zm3.425-5.491c0-1.759-.745-3.285-1.966-4.398l-4.958 5.472a1.37 1.37 0 0 1-.302-.434 1.57 1.57 0 0 1-.145-.64h7.371zm-1.839-4.277c-1.095-1.098-2.755-1.88-4.292-2.487l-2.702 6.88c.671.265 1.154.491 1.484.672.361.197.398.265.297.164l5.212-5.229zm-4.292-2.487c-1.685-.666-4.098-1.443-7.164-2.329l-2.039 7.106c3.008.869 5.15 1.569 6.502 2.103l2.702-6.88zm-7.137-2.321c-3.172-.943-5.395-2.396-6.912-4.223l-5.663 4.734c2.623 3.158 6.199 5.306 10.481 6.579l2.094-7.09zm-6.891-4.197c-1.532-1.879-2.273-3.96-2.273-6.384H-.597c0 4.132 1.33 7.868 3.939 11.067l5.705-4.683zm-2.273-6.384c0-4.199 1.319-6.837 3.547-8.575l-4.525-5.837C1.397 94.27-.597 99.293-.597 105.25h7.371zm3.552-8.58c2.527-1.979 6.153-3.164 11.26-3.164v-7.395c-6.212 0-11.605 1.447-15.796 4.73l4.536 5.828zm11.26-3.164a35.56 35.56 0 0 1 7.885.879l1.624-7.213a42.92 42.92 0 0 0-9.508-1.06v7.395zm7.94.891c2.559.538 4.743 1.328 6.593 2.333l3.511-6.502c-2.568-1.395-5.444-2.406-8.591-3.068l-1.513 7.238zm4.878-2.163l-3.727 10.456 6.941 2.49 3.727-10.456-6.941-2.49zm.928 8.199c-2.682-.913-5.109-1.589-7.259-2l-1.379 7.264c1.715.328 3.798.898 6.27 1.739l2.368-7.003zm-7.158-1.979c-2.126-.468-4.232-.709-6.312-.709v7.394c1.51 0 3.085.175 4.731.538l1.58-7.223zm-6.312-.709c-1.733 0-3.613.216-5.181 1.075-.84.459-1.649 1.136-2.234 2.097-.59.969-.825 2.019-.825 3.019h7.371c0 .169-.046.492-.256.837-.205.338-.445.495-.526.539-.06.033.013-.02.318-.075.297-.055.731-.097 1.334-.097v-7.394zm-8.241 6.191c0 2.564 1.592 4.295 3.195 5.29l3.88-6.288c-.176-.109-.103-.104.024.084a1.56 1.56 0 0 1 .194.41c.054.173.078.346.078.504h-7.371zm3.37 5.392c1.428.782 3.865 1.594 6.902 2.458l2.011-7.114c-3.128-.891-4.787-1.509-5.383-1.836l-3.53 6.492zm6.958 2.474c4.402 1.177 7.359 2.889 9.226 4.902l5.395-5.04c-3.102-3.342-7.461-5.6-12.722-7.008l-1.899 7.146zm9.248 4.925c1.823 1.93 2.717 4.177 2.717 6.943h7.371c0-4.619-1.59-8.697-4.737-12.029l-5.351 5.086zm2.717 6.943c0 4.251-1.328 7.065-3.643 9.001l4.719 5.68c4.311-3.604 6.296-8.683 6.296-14.681h-7.371zm-3.62 8.981c-2.39 1.965-6.31 3.248-12.365 3.248v7.395c6.92 0 12.801-1.441 17.037-4.923l-4.672-5.72zm15.12-41.802V87.15h-3.686v3.698h3.686zm15.944 0h3.686V87.15h-3.686v3.698zm0 47.639v3.698h3.686v-3.698h-3.686zm-15.944 0h-3.686v3.698h3.686v-3.698zm0-43.942h15.944V87.15H47.414v7.395zm12.258-3.697v47.639h7.371V90.848h-7.371zm3.685 43.942H47.414v7.395h15.944v-7.395zM51.1 138.487V90.848h-7.371v47.639H51.1zm22.594-47.639V87.15h-3.686v3.698h3.686zm33.337 0h3.685V87.15h-3.685v3.698zm0 10.525v3.697h3.685v-3.697h-3.685zm-16.565 0v-3.698H86.78v3.698h3.686zm0 8.655H86.78v3.698h3.686v-3.698zm15.115 0h3.686v-3.697h-3.686v3.697zm0 8.725v3.697h3.686v-3.697h-3.686zm-15.115 0v-3.698H86.78v3.698h3.686zm0 9.209H86.78v3.698h3.686v-3.698zm16.565 0h3.685v-3.697h-3.685v3.697zm0 10.525v3.698h3.685v-3.698h-3.685zm-33.337 0h-3.686v3.698h3.686v-3.698zm0-43.942h33.337V87.15H73.694v7.395zm29.651-3.697v10.525h7.371V90.848h-7.371zm3.686 6.828H90.466v7.395h16.565v-7.395zm-20.251 3.698v8.655h7.371v-8.655H86.78zm3.686 12.353h15.115v-7.395H90.466v7.395zm11.43-3.698v8.725h7.371v-8.725h-7.371zm3.685 5.027H90.466v7.395h15.115v-7.395zm-18.801 3.698v9.209h7.371v-9.209H86.78zm3.686 12.907h16.565v-7.395H90.466v7.395zm12.879-3.698v10.525h7.371v-10.525h-7.371zm3.686 6.828H73.694v7.395h33.337v-7.395zm-29.652 3.697V90.848h-7.371v47.639h7.371zm58.788-10.94l3.583-.868-.001-.004-3.582.872zm-1.725-7.132l3.581-.872-.683-2.826h-2.898v3.698zm-3.244 0v-3.698h-3.686v3.698h3.686zm0 18.072v3.698h3.685v-3.698h-3.685zm-15.116 0h-3.685v3.698h3.685v-3.698zm0-47.639V87.15h-3.685v3.698h3.685zm31.336 1.8l-1.369 3.433.031.013.032.012 1.306-3.458zm7.247 20.081l-2.995-2.156-.004.007-.005.006 3.004 2.143zm-6.902 5.124l-1.446-3.401-2.713 1.16.534 2.911 3.625-.67zm1.104 4.778l-3.54 1.031.013.041.013.041 3.514-1.113zm9.525 4.431h3.685v-4.223l-4.172.558.487 3.665zm0 11.287l1.318 3.453 2.367-.91v-2.543h-3.685zm-17.393-28.736l1.734 3.262.019-.01.019-.01-1.772-3.242zm.414-7.34l-1.987 3.114.045.029.046.027 1.896-3.17zm-10.215-1.108v-3.697h-3.686v3.697h3.686zm0 9.556h-3.686v3.697h3.686v-3.697zm20.844 25.177c-3.767 0-6.398-.871-8.233-2.263-1.815-1.378-3.243-3.564-4.059-6.956l-7.166 1.735c1.117 4.641 3.302 8.479 6.778 11.118 3.457 2.623 7.796 3.761 12.68 3.761v-7.395zm-12.293-9.223l-1.726-7.132-7.163 1.744 1.726 7.132 7.163-1.744zm-5.307-9.958h-3.244v7.395h3.244v-7.395zm-6.93 3.698v18.072h7.371v-18.072h-7.371zm3.686 14.375h-15.116v7.395h15.116v-7.395zm-11.43 3.697V90.848h-7.371v47.639h7.371zm-3.686-43.942h20.913V87.15h-20.913v7.395zm20.913 0c3.593 0 6.585.545 9.054 1.536l2.738-6.866c-3.514-1.41-7.469-2.065-11.792-2.065v7.395zm9.117 1.561c2.539.965 4.281 2.247 5.443 3.737l5.805-4.557c-2.15-2.757-5.102-4.752-8.637-6.096l-2.611 6.916zm5.443 3.737c1.135 1.454 1.702 3.093 1.702 5.061h7.371c0-3.571-1.089-6.826-3.268-9.618l-5.805 4.557zm1.702 5.061c0 2.466-.596 4.283-1.587 5.669l5.989 4.311c2.046-2.86 2.969-6.259 2.969-9.98h-7.371zm-1.596 5.682c-.967 1.364-2.635 2.706-5.344 3.866l2.891 6.802c3.549-1.518 6.482-3.592 8.46-6.382l-6.007-4.286zm-7.523 7.937c.34 1.853.735 3.568 1.189 5.139l7.079-2.062c-.373-1.292-.715-2.762-1.019-4.417l-7.249 1.34zm1.215 5.221c.669 2.128 1.765 4.215 3.65 5.565l4.284-6.017c-.048-.035-.471-.394-.905-1.775l-7.029 2.227zm3.65 5.565c1.849 1.326 4.138 1.728 6.352 1.728v-7.395c-1.467 0-1.985-.291-2.068-.35l-4.284 6.017zm6.352 1.728c.905 0 2.123-.122 3.524-.31l-.974-7.33c-1.36.182-2.167.245-2.55.245v7.395zm-.649-3.975v11.287h7.371v-11.287h-7.371zm2.368 7.834c-1.792.688-3.462 1.002-5.032 1.002v7.395c2.571 0 5.134-.518 7.668-1.491l-2.636-6.906zm-23.254-20.478c3.457 0 6.663-.339 8.913-1.543l-3.469-6.525c-.51.274-2.09.673-5.444.673v7.395zm8.951-1.563c2.783-1.532 4.053-4.208 4.053-7.189h-7.371c0 .448-.085.602-.087.605-.016.018-.052.052-.139.1l3.544 6.484zm4.053-7.189c0-2.613-1.053-5.081-3.515-6.563l-3.792 6.34c.021.013.007.008-.022-.023a.45.45 0 0 1-.071-.099c-.032-.064.029.009.029.345h7.371zm-3.424-6.507c-2.056-1.32-4.748-1.691-7.44-1.691v7.395c2.277 0 3.221.367 3.466.524l3.974-6.228zm-7.44-1.691h-4.762v7.395h4.762v-7.395zm-8.448 3.697v9.556h7.371v-9.556h-7.371zm3.686 13.253h2.622v-7.395h-2.622v7.395zm54.503 13.129l3.582-.868-.001-.004-3.581.872zm-1.726-7.132l3.582-.872-.684-2.826h-2.898v3.698zm-3.244 0v-3.698h-3.685v3.698h3.685zm0 18.072v3.698h3.686v-3.698h-3.686zm-15.115 0h-3.686v3.698h3.686v-3.698zm0-47.639V87.15h-3.686v3.698h3.686zm31.335 1.8l-1.369 3.433.032.013.032.012 1.305-3.458zm7.247 20.081l-2.995-2.156-.004.007-.004.006 3.003 2.143zm-6.902 5.124l-1.446-3.401-2.713 1.16.534 2.911 3.625-.67zm1.104 4.778l-3.539 1.031.012.041.013.041 3.514-1.113zm9.525 4.431h3.686v-4.223l-4.173.558.487 3.665zm0 11.287l1.318 3.453 2.368-.91v-2.543h-3.686zm-17.393-28.736l1.735 3.262.018-.01.019-.01-1.772-3.242zm.414-7.34l-1.986 3.114.044.029.046.027 1.896-3.17zm-10.215-1.108v-3.697h-3.685v3.697h3.685zm0 9.556h-3.685v3.697h3.685v-3.697zm20.844 25.177c-3.766 0-6.398-.871-8.233-2.263-1.815-1.378-3.243-3.564-4.059-6.956l-7.165 1.735c1.117 4.641 3.301 8.479 6.777 11.118 3.457 2.623 7.797 3.761 12.68 3.761v-7.395zm-12.293-9.223l-1.725-7.132-7.163 1.744 1.725 7.132 7.163-1.744zm-5.307-9.958h-3.244v7.395h3.244v-7.395zm-6.929 3.698v18.072h7.371v-18.072h-7.371zm3.685 14.375h-15.115v7.395h15.115v-7.395zm-11.43 3.697V90.848h-7.371v47.639h7.371zm-3.685-43.942h20.913V87.15h-20.913v7.395zm20.913 0c3.592 0 6.585.545 9.053 1.536l2.738-6.866c-3.513-1.41-7.469-2.065-11.791-2.065v7.395zm9.117 1.561c2.538.965 4.28 2.247 5.443 3.737l5.805-4.557c-2.151-2.757-5.103-4.752-8.637-6.096l-2.611 6.916zm5.443 3.737c1.134 1.454 1.701 3.093 1.701 5.061h7.371c0-3.571-1.089-6.826-3.267-9.618l-5.805 4.557zm1.701 5.061c0 2.466-.595 4.283-1.587 5.669l5.99 4.311c2.045-2.86 2.968-6.259 2.968-9.98h-7.371zm-1.595 5.682c-.967 1.364-2.635 2.706-5.345 3.866l2.892 6.802c3.548-1.518 6.482-3.592 8.46-6.382l-6.007-4.286zm-7.524 7.937c.341 1.853.736 3.568 1.19 5.139l7.079-2.062c-.374-1.292-.716-2.762-1.019-4.417l-7.25 1.34zm1.215 5.221c.67 2.128 1.765 4.215 3.65 5.565l4.284-6.017c-.048-.035-.47-.394-.905-1.775l-7.029 2.227zm3.65 5.565c1.85 1.326 4.138 1.728 6.352 1.728v-7.395c-1.466 0-1.985-.291-2.068-.35l-4.284 6.017zm6.352 1.728c.906 0 2.123-.122 3.524-.31l-.974-7.33c-1.36.182-2.166.245-2.55.245v7.395zm-.648-3.975v11.287h7.371v-11.287h-7.371zm2.367 7.834c-1.791.688-3.462 1.002-5.032 1.002v7.395c2.572 0 5.135-.518 7.668-1.491l-2.636-6.906zm-23.253-20.478c3.457 0 6.662-.339 8.913-1.543l-3.469-6.525c-.511.274-2.091.673-5.444.673v7.395zm8.95-1.563c2.784-1.532 4.053-4.208 4.053-7.189h-7.371c0 .448-.085.602-.087.605-.016.018-.052.052-.139.1l3.544 6.484zm4.053-7.189c0-2.613-1.052-5.081-3.515-6.563l-3.792 6.34c.022.013.008.008-.022-.023s-.055-.069-.071-.099c-.032-.064.029.009.029.345h7.371zm-3.424-6.507c-2.056-1.32-4.747-1.691-7.44-1.691v7.395c2.278 0 3.222.367 3.467.524l3.973-6.228zm-7.44-1.691h-4.762v7.395h4.762v-7.395zm-8.447 3.697v9.556h7.371v-9.556h-7.371zm3.685 13.253h2.623v-7.395h-2.623v7.395zm43.391-23.57V87.15h-2.806l-.747 2.713 3.553.984zm20.982 0l3.54-1.027-.77-2.67h-2.77v3.698zm13.735 47.639v3.698h4.903l-1.363-4.725-3.54 1.027zm-16.22 0l-3.616.715.586 2.983h3.03v-3.698zm-1.794-9.14l3.616-.714-.586-2.983h-3.03v3.697zm-12.286 0v-3.697h-2.964l-.636 2.904 3.6.793zm-2.002 9.14v3.698h2.964l.636-2.904-3.6-.794zm-15.529 0l-3.553-.984-1.289 4.682h4.842v-3.698zm28.16-17.657v3.698h4.566l-.963-4.478-3.603.78zm-4.486-20.842l3.602-.78-7.197-.034 3.595.815zm-4.694 20.842l-3.595-.815-1.016 4.513h4.611v-3.698zm-5.866-26.285h20.982V87.15h-20.982v7.395zm17.441-2.67l13.735 47.64 7.081-2.055-13.735-47.64-7.081 2.054zm17.276 42.915h-16.22v7.395h16.22v-7.395zm-12.604 2.983l-1.794-9.14-7.233 1.429 1.795 9.14 7.232-1.429zm-5.41-12.123h-12.286v7.395h12.286v-7.395zm-15.886 2.904l-2.001 9.14 7.199 1.587 2.002-9.141-7.2-1.586zm1.598 6.236h-15.529v7.395h15.529v-7.395zm-11.977 4.682l13.114-47.64-7.105-1.968-13.114 47.639 7.105 1.969zm28.211-19.422l-4.487-20.843-7.205 1.561 4.487 20.843 7.205-1.561zm-11.684-20.877l-4.694 20.842 7.19 1.63 4.694-20.842-7.19-1.63zm-1.099 25.355h9.18v-7.395h-9.18v7.395z" fill="#0a2a05"/></g><path d="M258.492 134.958H121.121v23.866h137.371v-23.866z" fill="#4caf2a" stroke="#7df349" stroke-width="3"/><path d="M147.27 141.345h2.178l-4.339 11.932h-3.033l-3.601-11.932h2.311l2.932 10.1 3.552-10.1zm15.31 1.882h-5.528v3.076h5.26v1.882h-5.26v3.21h5.729l-.151 1.882h-7.706v-11.932h7.656v1.882zm14.331-1.882h2.094v11.932h-1.91l-5.913-8.319v8.319h-2.094v-11.932h1.909l5.914 8.319v-8.319zm9.235 11.932v-11.932h3.535c2.312 0 4.06.498 5.244 1.495s1.776 2.471 1.776 4.42c0 1.211-.263 2.269-.788 3.177-.525.896-1.268 1.597-2.228 2.101-.961.493-2.089.739-3.384.739h-4.155zm2.178-1.932h1.893c1.396 0 2.457-.337 3.183-1.009.726-.683 1.089-1.681 1.089-2.991 0-1.368-.374-2.387-1.122-3.059-.737-.673-1.871-1.009-3.401-1.009h-1.642v8.068zm15.045 1.932v-11.932h2.178v11.932h-2.178zm17.144-11.932h2.094v11.932h-1.91l-5.913-8.319v8.319h-2.094v-11.932h1.909l5.914 8.319v-8.319zm15.032 5.714h4.724v6.218h-1.726l-.184-1.277c-.391.515-.888.885-1.491 1.109-.603.213-1.268.32-1.993.32-1.14 0-2.128-.236-2.966-.706s-1.485-1.143-1.943-2.017c-.458-.885-.687-1.939-.687-3.16 0-1.266.257-2.375.771-3.328a5.67 5.67 0 0 1 2.211-2.235c.96-.538 2.083-.807 3.368-.807 1.049 0 1.948.196 2.697.589s1.368.98 1.859 1.764l-1.675 1.227c-.302-.538-.709-.935-1.223-1.193s-1.078-.387-1.692-.387c-.827 0-1.547.185-2.161.555a3.68 3.68 0 0 0-1.407 1.513c-.324.649-.486 1.406-.486 2.269 0 1.254.312 2.229.938 2.924.637.683 1.508 1.025 2.613 1.025.525 0 1.022-.095 1.491-.286s.849-.47 1.14-.84c.301-.381.452-.846.452-1.395v-.101h-2.63v-1.781z" fill="#fff"/></g><defs><linearGradient id="B" x1="0" y1="109.748" x2="259.665" y2="109.748" gradientUnits="userSpaceOnUse"><stop stop-color="#7df349"/><stop offset="1" stop-color="#4caf2a"/></linearGradient><clipPath id="C"><path fill="#fff" d="M0 0h260v160H0z"/></clipPath></defs></svg>