<svg xmlns="http://www.w3.org/2000/svg" width="1386.667" height="1386.667" viewBox="0 0 1040 1040" preserveAspectRatio="xMidYMid meet" xmlns:v="https://vecta.io/nano"><path d="M481 360.7l-107.6 108c-1 .3-31.1-19-77-49.3-2-1.4-4.7 2.5-79.9 116.1l-78.5 118c-.4.3-10.5-14.8-22.5-33.5-11.9-18.7-22-34-22.5-34-.4 0-21.3 45.1-46.3 100.2L1.2 786.5l260 .3h519.3l259.3-.3-41.7-81.8-42.2-82.1c-.2-.3-7.1 10.6-15.3 24.1l-14.9 24.5-2.6-4.3c-1.5-2.4-37.1-62.1-79.1-132.7L766.6 406c-.6 0-13.4 6.8-28.5 15.1-18.6 10.2-27.9 14.9-28.8 14.3-1.3-.9-119-178.6-120-181.2-.3-.6-.8-1.2-1.2-1.1-.3 0-48.5 48.5-107.1 107.6zm112.8-57.4c5.5 7.8 10.9 15.8 12 17.8 1.8 3.3 101.4 147.4 103.1 149.1.3.4 13.4-7.4 29.1-17.2 15.6-9.9 28.7-17.7 29.2-17.2.4.4 20.5 32.4 44.7 71l43.9 70.2h-35.2-35.1l-36.9-38.8-38-39.6c-.7-.5-9.3 3.2-23.3 10.2-16.4 8.2-22.4 10.8-23 9.9-.6-.7-14.4-24-30.7-52L603.2 416c-.4 0-4.2 5.2-8.6 11.6-4.3 6.4-8.2 11.2-8.6 10.7-.5-.4-6.1-8.9-12.5-18.8s-12-18.1-12.5-18.3c-.4-.2-1.1.5-1.4 1.5l-17.7 61.8-17.3 60.2c-.2.2-11.4-14.1-25.1-31.7s-25.2-31.9-25.6-31.8c-.3.2-20.5 22.5-44.7 49.7l-44.5 49.5c-.3 0-12-11.3-26-25.2-14-13.8-25.8-25.2-26.3-25.2s-9.7 14.3-20.4 31.7l-20.6 33.1c-.9 1.2-2.9.2-12.5-6.1l-11.4-7.6-29.9 8c-16.4 4.4-30.2 7.8-30.7 7.7-1.3-.5 86.8-126.3 88.3-126.2.7.1 18.6 11.9 39.8 26.3l38.5 26.1 17.5-17.7 169.3-172.6 23.2-23.7c.2 0 4.9 6.4 10.3 14.3z"/></svg>