<svg xmlns="http://www.w3.org/2000/svg" width="93" height="108" fill="none" xmlns:v="https://vecta.io/nano"><path d="M55.529 105.766H47.1449L39.4058 101.252L33.6014 95.4476L23.2826 84.4838L17.4783 76.7447L14.2536 67.0708L12.9638 60.6215L11.6739 54.1722L10.3841 51.5925L2.64493 44.4983L2 42.5635L2.64493 39.3389L4.57971 36.7592L6.51449 35.4693H10.3841H14.2536L17.4783 36.7592L21.3478 39.3389L24.5725 42.5635L30.3768 52.2374L32.3116 56.107H33.6014L76.8116 12.8969H80.0362L83.2609 13.5418L85.8406 15.4766L86.4855 18.7012L85.8406 22.5708L67.7826 40.6287V41.2737H72.2971L76.1667 42.5635L77.4565 47.7229L74.8768 52.2374H78.7464L82.6159 54.1722L84.5507 58.6867L81.971 63.8461H85.8406L88.4203 64.4911L91 67.7157V73.52L58.7536 103.832L55.529 105.766Z" stroke="url(#A)" stroke-width="2.5"/><path d="M49.73 18.488c-.237-.273-.447-.943.002-2.18.429-1.182 1.373-2.565 2.785-3.793s2.914-1.97 4.144-2.23c1.287-.272 1.922.028 2.159.301s.447.943-.002 2.18c-.429 1.182-1.373 2.565-2.785 3.793s-2.914 1.97-4.144 2.23c-1.287.272-1.922-.028-2.159-.301zM36.549 1.717c.361.019.989.334 1.567 1.516.552 1.13.892 2.77.794 4.639s-.607 3.465-1.274 4.53c-.698 1.115-1.355 1.363-1.717 1.344s-.989-.334-1.567-1.516c-.552-1.13-.892-2.77-.794-4.639s.607-3.465 1.274-4.53c.698-1.115 1.355-1.363 1.717-1.344zm-21.302 8.486c.285-.223.965-.397 2.177.116 1.158.49 2.49 1.505 3.642 2.98s1.815 3.013 2.011 4.255c.205 1.299-.129 1.918-.414 2.14s-.965.397-2.177-.116c-1.158-.49-2.49-1.505-3.642-2.98s-1.815-3.013-2.011-4.255c-.204-1.299.129-1.917.414-2.14z" fill="#48ad70" stroke="#48ad70" stroke-width="3"/><defs><linearGradient id="A" x1="2" y1="12.897" x2="91" y2="105.766" gradientUnits="userSpaceOnUse"><stop stop-color="#7df349"/><stop offset="1" stop-color="#265124"/></linearGradient></defs></svg>