<svg xmlns="http://www.w3.org/2000/svg" xmlns:xlink="http://www.w3.org/1999/xlink" width="78" height="104" fill="none" xmlns:v="https://vecta.io/nano"><rect x="1.25" y="1.25" width="75.5" height="101.027" rx="2.75" stroke="url(#A)" stroke-width="2.5"/><path stroke="url(#B)" d="M 7.590829835662841 9.009290204772949 L 54.80902051925659 9.00928020477295 L 54.80902051925659 67.57287883758545 L 7.590819835662842 67.57287883758545 Z"/><g stroke="#12803f"><rect x="14.681" y="16.1" width="7.251" height="7.251" rx="1.5"/><rect x="27.188" y="16.1" width="7.251" height="7.251" rx="1.5"/><rect x="39.693" y="16.1" width="7.251" height="7.251" rx="1.5"/><rect x="14.681" y="28.475" width="7.251" height="7.251" rx="1.5"/><rect x="27.188" y="28.475" width="7.251" height="7.251" rx="1.5"/><rect x="39.693" y="28.475" width="7.251" height="7.251" rx="1.5"/><rect x="14.681" y="40.854" width="7.251" height="7.251" rx="1.5"/><rect x="27.188" y="40.854" width="7.251" height="7.251" rx="1.5"/><rect x="39.693" y="40.854" width="7.251" height="7.251" rx="1.5"/><rect x="39.693" y="53.23" width="7.251" height="7.251" rx="1.5"/><rect x="27.188" y="53.23" width="7.251" height="7.251" rx="1.5"/><rect x="14.681" y="53.23" width="7.251" height="7.251" rx="1.5"/></g><rect x="62.9" y="16.102" width="7.509" height="35.873" rx="1.5" stroke="url(#C)"/><rect x="62.9" y="60.065" width="7.509" height="7.509" rx="1.5" stroke="url(#D)"/><rect x="7.591" y="79.917" width="47.218" height="14.6" rx="1.5" stroke="url(#E)"/><rect x="18.937" y="84.172" width="7.509" height="7.509" rx="1.5" stroke="#12803f"/><defs><linearGradient id="A" x1="0" y1="0" x2="78" y2="103.527" xlink:href="#F"><stop stop-color="#7df349"/><stop offset="1" stop-color="#265124"/></linearGradient><linearGradient id="B" x1=".709" y1="-.709" x2="77.291" y2="102.109" xlink:href="#F"><stop stop-color="#7df349"/><stop offset="1" stop-color="#265124"/></linearGradient><linearGradient id="C" x1="1.419" y1=".711" x2="76.582" y2="101.402" xlink:href="#F"><stop stop-color="#7df349"/><stop offset="1" stop-color="#265124"/></linearGradient><linearGradient id="D" x1=".709" y1="1.419" x2="76.582" y2="102.819" xlink:href="#F"><stop stop-color="#7df349"/><stop offset="1" stop-color="#265124"/></linearGradient><linearGradient id="E" x1=".709" y1=".708" x2="75.873" y2="100.689" xlink:href="#F"><stop stop-color="#7df349"/><stop offset="1" stop-color="#265124"/></linearGradient><linearGradient id="F" gradientUnits="userSpaceOnUse"/></defs></svg>