<svg xmlns="http://www.w3.org/2000/svg" width="98" height="99" fill="none" xmlns:v="https://vecta.io/nano"><path d="M4.122 20.42c-1.409.363-2.487 1.409-2.887 2.799a32.08 32.08 0 0 0-.212 16.851 32.08 32.08 0 0 0 8.359 14.633c8.508 8.506 21.125 11.522 32.483 7.857l31.244 31.172c1.355 1.358 2.965 2.435 4.736 3.171s3.671 1.115 5.589 1.117a14.59 14.59 0 0 0 10.301-4.288 14.61 14.61 0 0 0 0-20.63l-31.219-31.15a32.1 32.1 0 0 0 .681-17.385c-1.378-5.747-4.315-11.002-8.489-15.186a32.08 32.08 0 0 0-31.487-8.147c-.679.192-1.295.56-1.786 1.066s-.841 1.133-1.013 1.817c-.367 1.425.031 2.897 1.066 3.935L33.867 20.43c1.774 1.778 2.781 4.18 2.808 6.691a9.67 9.67 0 0 1-2.589 6.515c-1.678 1.793-4.022 2.801-6.601 2.844-1.372.023-2.734-.228-4.007-.74s-2.431-1.273-3.404-2.239L8.053 21.486A4.07 4.07 0 0 0 4.12 20.42h.002zm23.195 20.147l.233-.002c3.696-.061 7.075-1.531 9.515-4.137 2.34-2.497 3.651-5.785 3.694-9.307a13.69 13.69 0 0 0-4.006-9.576L24.344 5.162a27.99 27.99 0 0 1 27.475 7.11c7.718 7.718 10.242 19.301 6.432 29.508-.282.751-.08 1.613.488 2.179l32.108 32.036c1.468 1.469 2.468 3.34 2.874 5.377s.199 4.149-.593 6.068-2.136 3.562-3.861 4.719-3.754 1.777-5.831 1.783c-2.793-.004-5.47-1.118-7.442-3.095L43.848 58.769a2.04 2.04 0 0 0-2.148-.47c-10.178 3.757-21.733 1.213-29.429-6.483a27.94 27.94 0 0 1-7.103-27.442l12.016 12.014a14.39 14.39 0 0 0 10.134 4.178z" fill="url(#A)"/><defs><linearGradient id="A" x1="0" y1=".008" x2="108.216" y2="107.203" gradientUnits="userSpaceOnUse"><stop stop-color="#7df349"/><stop offset="1" stop-color="#265124"/></linearGradient></defs></svg>