<svg xmlns="http://www.w3.org/2000/svg" width="115" height="88" fill="none" xmlns:v="https://vecta.io/nano"><mask id="A" fill="#fff"><path d="M0 2a2 2 0 0 1 2-2h111a2 2 0 0 1 2 2v13.573H0V2z"/></mask><path d="M0 2C0 0.895432 0.89543 0 2 0H113C114.105 0 115 0.89543 115 2V15.5729H0V2Z" stroke="url(#E)" stroke-width="5" mask="url(#A)"/><mask id="B" fill="#fff"><path d="M0 28.75h115v56.698a2 2 0 0 1-2 2H2a2 2 0 0 1-2-2V28.75z"/></mask><path d="M0 28.75H115V85.4479C115 86.5525 114.105 87.4479 113 87.4479H2C0.895433 87.4479 0 86.5525 0 85.4479V28.75Z" stroke="url(#F)" stroke-width="5" mask="url(#B)"/><mask id="C" fill="#fff"><rect x="13.177" y="57.501" width="16.771" height="16.771" rx="2"/></mask><rect x="13.177" y="57.501" width="16.771" height="16.771" rx="2" stroke="url(#G)" stroke-width="5" mask="url(#C)"/><mask id="D" fill="#fff"><rect x="41.927" y="57.501" width="16.771" height="16.771" rx="2"/></mask><rect x="41.927" y="57.501" width="16.771" height="16.771" rx="2" stroke="url(#H)" stroke-width="5" mask="url(#D)"/><defs><linearGradient id="E" x1="0" y1="0" x2="115" y2="87.277" gradientUnits="userSpaceOnUse"><stop stop-color="#7df349"/><stop offset="1" stop-color="#265124"/></linearGradient><linearGradient id="F" x1="0" y1="-.513" x2="115" y2="87.277" gradientUnits="userSpaceOnUse"><stop stop-color="#7df349"/><stop offset="1" stop-color="#002f13"/></linearGradient><linearGradient id="G" x1="1.027" y1="1.541" x2="115" y2="87.277" gradientUnits="userSpaceOnUse"><stop stop-color="#7df349"/><stop offset="1" stop-color="#265124"/></linearGradient><linearGradient id="H" x1="1.027" y1="2.054" x2="113.46" y2="87.277" gradientUnits="userSpaceOnUse"><stop stop-color="#7df349"/><stop offset="1" stop-color="#265124"/></linearGradient></defs></svg>